<svg xmlns="http://www.w3.org/2000/svg" version="1.1" x="0" y="0" viewBox="0 0 300 300" xml:space="preserve"><rect fill="#F9F9FC" width="300" height="300"/><path fill="#D5D5DB" d="M217.5 174.7L217.5 174.7c0-0.2 0-0.2 0-0.2 0-0.4 0-0.6-0.2-1.1 0 0 0 0 0-0.2 -0.2-0.4-0.4-0.6-0.6-1.1l0 0 0 0c-0.2-0.2-0.6-0.4-0.8-0.6l0 0c-0.4-0.2-0.6-0.2-1.1-0.2 0 0 0 0-0.2 0 0 0 0 0-0.2 0h-2.8c-1.5-28.6-23.7-51.8-52.1-56.3 0.8-1.7 1.5-3.4 1.5-5.5 0-6.1-4.9-11-11-11s-11 4.9-11 11c0 1.9 0.6 3.8 1.5 5.3 -29.2 4-51.8 27.5-53.3 56.5h-1.5c0 0 0 0-0.2 0 0 0 0 0-0.2 0 -0.4 0-0.8 0.2-1.1 0.2l0 0c-0.4 0.2-0.6 0.4-0.8 0.6l0 0 0 0c-0.2 0.2-0.4 0.6-0.6 1.1 0 0 0 0 0 0.2s-0.2 0.6-0.2 1.1c0 0 0 0 0 0.2 0 0 0 0 0 0.2 0 0.4 0.2 0.6 0.2 1.1l0 0c0.4 0.2 0.6 0.6 0.8 0.8l0 0 15.2 13.8 0 0c0.2 0.2 0.6 0.4 0.8 0.6 0 0 0 0 0.2 0 0.4 0.2 0.6 0.2 1.1 0.2l0 0 0 0 0 0h98.2c0.4 0 0.6 0 1.1-0.2 0 0 0 0 0.2 0 0.4-0.2 0.6-0.4 0.8-0.6l0 0 15.2-13.8 0 0c0.2-0.2 0.4-0.6 0.6-0.8l0 0C217.3 175.6 217.3 175.2 217.5 174.7zM197.8 185.1h-95.6l-8.3-7.4h112.1L197.8 185.1zM150 104.9c2.5 0 4.7 2.1 4.7 4.7s-2.1 4.7-4.7 4.7 -4.7-2.1-4.7-4.7S147.5 104.9 150 104.9zM149.4 120.6c29.8 0 54.2 22.4 55.9 50.8H93.5C95.2 143 119.5 120.6 149.4 120.6zM115.5 138.5c-6.3 5.5-11.4 12.3-14.4 19.9 -0.6 1.7 0.2 3.4 1.9 4 0.4 0.2 0.8 0.2 1.1 0.2 1.3 0 2.5-0.8 3-2.1 2.5-6.8 7-12.7 12.5-17.4 1.3-1.1 1.5-3.2 0.4-4.4C118.9 137.7 117 137.5 115.5 138.5z"/></svg>
